<?xml version="1.0" encoding="utf-8"?>
<!-- Generator: Adobe Illustrator 24.3.0, SVG Export Plug-In . SVG Version: 6.00 Build 0)  -->
<svg version="1.1" id="Layer_1" xmlns="http://www.w3.org/2000/svg" xmlns:xlink="http://www.w3.org/1999/xlink" x="0px" y="0px"
	 viewBox="0 0 900 560" style="enable-background:new 0 0 900 560;" xml:space="preserve">
<style type="text/css">
	.st0{fill:none;stroke:#202124;}
	.st1{fill:none;stroke:#202124;stroke-width:1.5;}
	.st2{font-family:'HelveticaNeue-Light';}
	.st3{font-size:8px;}
	.st4{fill:#90CAF9;fill-opacity:0.35;}
	.st5{fill:none;stroke:#1565C0;stroke-width:3;stroke-linecap:round;}
	.st6{fill:#B71C1C;fill-opacity:0.85;stroke:#202124;stroke-width:0.6;}
	.st7{fill:#2E7D32;fill-opacity:0.85;stroke:#202124;stroke-width:0.6;}
	.st8{fill:#2E7D32;stroke:#202124;stroke-width:0.6;}
	.st9{fill:#B71C1C;stroke:#202124;stroke-width:0.6;}
	.st10{font-size:8.5589px;}
	.st11{fill:none;}
	.st12{font-family:'HelveticaNeue-Medium';}
	.st13{font-size:16px;}
</style>
<line class="st0" x1="55.5" y1="217.6" x2="385" y2="217.6"/>
<line class="st0" x1="55.5" y1="25" x2="55.5" y2="217.6"/>
<line class="st1" x1="55.5" y1="217.6" x2="55.5" y2="220.2"/>
<line class="st1" x1="137.9" y1="217.6" x2="137.9" y2="220.2"/>
<line class="st1" x1="220.2" y1="217.6" x2="220.2" y2="220.2"/>
<line class="st1" x1="302.6" y1="217.6" x2="302.6" y2="220.2"/>
<line class="st1" x1="385" y1="217.6" x2="385" y2="220.2"/>
<line class="st1" x1="52.9" y1="217.6" x2="55.5" y2="217.6"/>
<text transform="matrix(1 0 0 1 37.0166 219.7314)" class="st2 st3">0.00</text>
<line class="st1" x1="52.9" y1="169.4" x2="55.5" y2="169.4"/>
<text transform="matrix(1 0 0 1 37.0166 171.5879)" class="st2 st3">0.25</text>
<line class="st1" x1="52.9" y1="121.3" x2="55.5" y2="121.3"/>
<text transform="matrix(1 0 0 1 37.0166 123.4434)" class="st2 st3">0.50</text>
<line class="st1" x1="52.9" y1="73.2" x2="55.5" y2="73.2"/>
<text transform="matrix(1 0 0 1 37.0166 75.2998)" class="st2 st3">0.75</text>
<line class="st1" x1="52.9" y1="25" x2="55.5" y2="25"/>
<text transform="matrix(1 0 0 1 37.0166 27.1562)" class="st2 st3">1.00</text>
<path class="st4" d="M55.5,201.7l0.8,0l0.8,0l0.8,0l0.8,0l0.8,0l0.8,0l0.8,0l0.8,0l0.8,0l0.8,0l0.8,0l0.8,0l0.8,0l0.8,0l0.8,0l0.8,0
	l0.8,0l0.8,0l0.8,0l0.8,0l0.8,0l0.8,0l0.8,0l0.8,0l0.8,0l0.8,0l0.8,0l0.8,0l0.8,0l0.8,0l0.8,0l0.8,0l0.8,0l0.8,0l0.8,0l0.8,0l0.8,0
	l0.8,0l0.8,0l0.8,0l0.8,0l0.8-0.1l0.8-0.1l0.8-0.1l0.8-0.1l0.8-0.1l0.8-0.1l0.8-0.1l0.8-0.1l0.8-0.1l0.8-0.1l0.8-0.1l0.8-0.1
	l0.8-0.1l0.8-0.1l0.8-0.1l0.8-0.1l0.8-0.1l0.8-0.1l0.8-0.1l0.8-0.1l0.8-0.1l0.8-0.1l0.8-0.1l0.8-0.1l0.8-0.1l0.8-0.1l0.8-0.1
	l0.8-0.1l0.8-0.1l0.8-0.1l0.8-0.1l0.8-0.1l0.8-0.1l0.8-0.1l0.8-0.1l0.8-0.1l0.8-0.1l0.8-0.1l0.8-0.1l0.8-0.1l0.8-0.2l0.8-0.2
	l0.8-0.2l0.8-0.2l0.8-0.2l0.8-0.2l0.8-0.2l0.8-0.2l0.8-0.2l0.8-0.2l0.8-0.2l0.8-0.2l0.8-0.2l0.8-0.2l0.8-0.2l0.8-0.2l0.8-0.2
	l0.8-0.3l0.8-0.3l0.8-0.3l0.8-0.3l0.8-0.3l0.8-0.3l0.8-0.3l0.8-0.3l0.8-0.3l0.8-0.3l0.8-0.3l0.8-0.3l0.8-0.3l0.8-0.4l0.8-0.4
	l0.8-0.4l0.8-0.4l0.8-0.4l0.8-0.4l0.8-0.4l0.8-0.4l0.8-0.4l0.8-0.4l0.8-0.5l0.8-0.5l0.8-0.5l0.8-0.5l0.8-0.5l0.8-0.5l0.8-0.5
	l0.8-0.5l0.8-0.6l0.8-0.6l0.8-0.6l0.8-0.6l0.8-0.6l0.8-0.6l0.8-0.6l0.8-0.7l0.8-0.7l0.8-0.7l0.8-0.7l0.8-0.7l0.8-0.7l0.8-0.7
	l0.8-0.8l0.8-0.8l0.8-0.8l0.8-0.8l0.8-0.8l0.8-0.8l0.8-0.9l0.8-0.9l0.8-0.9l0.8-0.9l0.8-0.9l0.8-0.9l0.8-1l0.8-1l0.8-1l0.8-1l0.8-1
	l0.8-1l0.8-1.1l0.8-1.1l0.8-1.1l0.8-1.1l0.8-1.1l0.8-1.1l0.8-1.2l0.8-1.2l0.8-1.2l0.8-1.2l0.8-1.2l0.8-1.2l0.8-1.2l0.8-1.3l0.8-1.3
	l0.8-1.3l0.8-1.3l0.8-1.3l0.8-1.3l0.8-1.3l0.8-1.3l0.8-1.4l0.8-1.4l0.8-1.4l0.8-1.4l0.8-1.4l0.8-1.4l0.8-1.4l0.8-1.4l0.8-1.4
	l0.8-1.4l0.8-1.4l0.8-1.4l0.8-1.4l0.8-1.4l0.8-1.4l0.8-1.4l0.8-1.4l0.8-1.4l0.8-1.4l0.8-1.4l0.8-1.4l0.8-1.4l0.8-1.4l0.8-1.4
	l0.8-1.4l0.8-1.4l0.8-1.4l0.8-1.4l0.8-1.4l0.8-1.4l0.8-1.4l0.8-1.4l0.8-1.4l0.8-1.4l0.8-1.4l0.8-1.4l0.8-1.3l0.8-1.3l0.8-1.3
	l0.8-1.3l0.8-1.3l0.8-1.3l0.8-1.3l0.8-1.3l0.8-1.2l0.8-1.2l0.8-1.2l0.8-1.2l0.8-1.2l0.8-1.2l0.8-1.2l0.8-1.1l0.8-1.1l0.8-1.1
	l0.8-1.1l0.8-1.1l0.8-1.1l0.8-1l0.8-1l0.8-1l0.8-1l0.8-1l0.8-1l0.8-0.9l0.8-0.9l0.8-0.9l0.8-0.9l0.8-0.9l0.8-0.9l0.8-0.8l0.8-0.8
	l0.8-0.8l0.8-0.8l0.8-0.8l0.8-0.8l0.8-0.7l0.8-0.7l0.8-0.7l0.8-0.7l0.8-0.7l0.8-0.7l0.8-0.7l0.8-0.6l0.8-0.6l0.8-0.6l0.8-0.6
	l0.8-0.6l0.8-0.6l0.8-0.6l0.8-0.5l0.8-0.5l0.8-0.5L282,28l0.8-0.5l0.8-0.5l0.8-0.5l0.8-0.5l0.8-0.4l0.8-0.4l0.8-0.2h0.8h0.8h0.8h0.8
	h0.8h0.8h0.8h0.8h0.8h0.8h0.8h0.8h0.8h0.8h0.8h0.8h0.8h0.8h0.8h0.8h0.8h0.8h0.8h0.8h0.8h0.8h0.8h0.8h0.8h0.8h0.8h0.8h0.8h0.8h0.8
	h0.8h0.8h0.8h0.8h0.8h0.8h0.8h0.8h0.8h0.8h0.8h0.8h0.8h0.8h0.8h0.8h0.8h0.8h0.8h0.8h0.8h0.8h0.8h0.8h0.8h0.8h0.8h0.8h0.8h0.8h0.8
	h0.8h0.8h0.8h0.8h0.8h0.8h0.8h0.8h0.8h0.8h0.8h0.8h0.8h0.8h0.8h0.8h0.8h0.8h0.8h0.8h0.8h0.8h0.8h0.8h0.8h0.8h0.8h0.8h0.8h0.8h0.8
	h0.8h0.8h0.8h0.8h0.8h0.8h0.8h0.8h0.8h0.8h0.8h0.8h0.8h0.8h0.8h0.8h0.8h0.8h0.8h0.8h0.8v15.9l-0.8,0l-0.8,0l-0.8,0l-0.8,0l-0.8,0
	l-0.8,0l-0.8,0l-0.8,0l-0.8,0l-0.8,0l-0.8,0l-0.8,0l-0.8,0l-0.8,0l-0.8,0l-0.8,0l-0.8,0l-0.8,0l-0.8,0l-0.8,0l-0.8,0l-0.8,0l-0.8,0
	l-0.8,0l-0.8,0l-0.8,0l-0.8,0l-0.8,0l-0.8,0l-0.8,0l-0.8,0l-0.8,0l-0.8,0l-0.8,0l-0.8,0l-0.8,0l-0.8,0l-0.8,0l-0.8,0l-0.8,0l-0.8,0
	l-0.8,0.1l-0.8,0.1l-0.8,0.1l-0.8,0.1l-0.8,0.1l-0.8,0.1l-0.8,0.1l-0.8,0.1l-0.8,0.1l-0.8,0.1l-0.8,0.1l-0.8,0.1l-0.8,0.1l-0.8,0.1
	l-0.8,0.1L338,43l-0.8,0.1l-0.8,0.1l-0.8,0.1l-0.8,0.1l-0.8,0.1l-0.8,0.1l-0.8,0.1l-0.8,0.1l-0.8,0.1l-0.8,0.1L329,44l-0.8,0.1
	l-0.8,0.1l-0.8,0.1l-0.8,0.1l-0.8,0.1l-0.8,0.1l-0.8,0.1l-0.8,0.1l-0.8,0.1l-0.8,0.1l-0.8,0.1l-0.8,0.1l-0.8,0.1l-0.8,0.2l-0.8,0.2
	l-0.8,0.2l-0.8,0.2l-0.8,0.2l-0.8,0.2l-0.8,0.2l-0.8,0.2l-0.8,0.2l-0.8,0.2l-0.8,0.2l-0.8,0.2l-0.8,0.2l-0.8,0.2l-0.8,0.2l-0.8,0.2
	l-0.8,0.2l-0.8,0.3l-0.8,0.3l-0.8,0.3l-0.8,0.3l-0.8,0.3l-0.8,0.3l-0.8,0.3l-0.8,0.3l-0.8,0.3l-0.8,0.3l-0.8,0.3l-0.8,0.3l-0.8,0.3
	l-0.8,0.4l-0.8,0.4l-0.8,0.4l-0.8,0.4l-0.8,0.4l-0.8,0.4l-0.8,0.4L287,56l-0.8,0.4l-0.8,0.4l-0.8,0.5l-0.8,0.5l-0.8,0.5l-0.8,0.5
	l-0.8,0.5l-0.8,0.5l-0.8,0.5l-0.8,0.5l-0.8,0.6l-0.8,0.6l-0.8,0.6l-0.8,0.6l-0.8,0.6l-0.8,0.6L273,65l-0.8,0.7l-0.8,0.7l-0.8,0.7
	l-0.8,0.7l-0.8,0.7l-0.8,0.7l-0.8,0.7l-0.8,0.8l-0.8,0.8l-0.8,0.8l-0.8,0.8l-0.8,0.8l-0.8,0.8l-0.8,0.9l-0.8,0.9l-0.8,0.9l-0.8,0.9
	l-0.8,0.9l-0.8,0.9l-0.8,1l-0.8,1l-0.8,1l-0.8,1l-0.8,1l-0.8,1l-0.8,1.1l-0.8,1.1l-0.8,1.1l-0.8,1.1l-0.8,1.1l-0.8,1.1l-0.8,1.2
	l-0.8,1.2l-0.8,1.2l-0.8,1.2l-0.8,1.2l-0.8,1.2l-0.8,1.2l-0.8,1.3l-0.8,1.3l-0.8,1.3l-0.8,1.3l-0.8,1.3l-0.8,1.3l-0.8,1.3l-0.8,1.3
	l-0.8,1.4l-0.8,1.4l-0.8,1.4l-0.8,1.4l-0.8,1.4l-0.8,1.4l-0.8,1.4l-0.8,1.4l-0.8,1.4l-0.8,1.4l-0.8,1.4l-0.8,1.4l-0.8,1.4l-0.8,1.4
	l-0.8,1.4l-0.8,1.4l-0.8,1.4l-0.8,1.4l-0.8,1.4l-0.8,1.4l-0.8,1.4l-0.8,1.4l-0.8,1.4l-0.8,1.4l-0.8,1.4l-0.8,1.4l-0.8,1.4L212,151
	l-0.8,1.4l-0.8,1.4l-0.8,1.4l-0.8,1.4l-0.8,1.4l-0.8,1.4l-0.8,1.4l-0.8,1.4l-0.8,1.3l-0.8,1.3l-0.8,1.3l-0.8,1.3l-0.8,1.3l-0.8,1.3
	l-0.8,1.3l-0.8,1.3l-0.8,1.2l-0.8,1.2l-0.8,1.2l-0.8,1.2l-0.8,1.2l-0.8,1.2l-0.8,1.2l-0.8,1.1l-0.8,1.1l-0.8,1.1l-0.8,1.1l-0.8,1.1
	l-0.8,1.1l-0.8,1l-0.8,1l-0.8,1l-0.8,1l-0.8,1l-0.8,1l-0.8,0.9l-0.8,0.9l-0.8,0.9l-0.8,0.9l-0.8,0.9l-0.8,0.9l-0.8,0.8l-0.8,0.8
	l-0.8,0.8l-0.8,0.8l-0.8,0.8l-0.8,0.8l-0.8,0.7l-0.8,0.7l-0.8,0.7l-0.8,0.7l-0.8,0.7l-0.8,0.7l-0.8,0.7l-0.8,0.6l-0.8,0.6l-0.8,0.6
	l-0.8,0.6l-0.8,0.6l-0.8,0.6l-0.8,0.6l-0.8,0.5l-0.8,0.5l-0.8,0.5l-0.8,0.5l-0.8,0.5l-0.8,0.5l-0.8,0.5l-0.8,0.5l-0.8,0.4l-0.8,0.4
	l-0.8,0.2h-0.8H151h-0.8h-0.8h-0.8h-0.8h-0.8h-0.8h-0.8h-0.8h-0.8h-0.8H142h-0.8h-0.8h-0.8h-0.8h-0.8H137h-0.8h-0.8h-0.8h-0.8h-0.8
	h-0.8h-0.8h-0.8h-0.8h-0.8H128h-0.8h-0.8h-0.8h-0.8h-0.8H123h-0.8h-0.8h-0.8h-0.8h-0.8h-0.8h-0.8h-0.8h-0.8h-0.8H114h-0.8h-0.8h-0.8
	h-0.8h-0.8H109h-0.8h-0.8h-0.8h-0.8h-0.8h-0.8h-0.8h-0.8h-0.8h-0.8H100h-0.8h-0.8h-0.8h-0.8h-0.8H95h-0.8h-0.8h-0.8h-0.8h-0.8h-0.8
	h-0.8h-0.8h-0.8h-0.8H86h-0.8h-0.8h-0.8h-0.8h-0.8H81h-0.8h-0.8h-0.8h-0.8h-0.8h-0.8h-0.8h-0.8h-0.8h-0.8H72h-0.8h-0.8h-0.8h-0.8
	h-0.8H67h-0.8h-0.8h-0.8h-0.8h-0.8h-0.8h-0.8h-0.8h-0.8h-0.8H58h-0.8h-0.8h-0.8V201.7z"/>
<path class="st5" d="M55.5,217.1l0.8,0l0.8,0l0.8,0l0.8,0l0.8,0l0.8,0l0.8,0l0.8,0l0.8,0l0.8,0l0.8,0l0.8,0l0.8,0l0.8,0l0.8,0l0.8,0
	l0.8,0l0.8,0l0.8,0l0.8,0l0.8,0l0.8,0l0.8,0l0.8,0l0.8,0l0.8,0l0.8,0l0.8,0l0.8,0l0.8,0l0.8,0l0.8,0l0.8,0l0.8,0l0.8,0l0.8,0l0.8,0
	l0.8,0l0.8,0l0.8,0l0.8,0l0.8-0.1l0.8-0.1l0.8-0.1l0.8-0.1l0.8-0.1l0.8-0.1l0.8-0.1l0.8-0.1l0.8-0.1l0.8-0.1l0.8-0.1l0.8-0.1
	l0.8-0.1l0.8-0.1l0.8-0.1l0.8-0.1l0.8-0.1l0.8-0.1l0.8-0.1l0.8-0.1l0.8-0.1l0.8-0.1l0.8-0.1l0.8-0.1l0.8-0.1l0.8-0.1l0.8-0.1
	l0.8-0.1l0.8-0.1l0.8-0.1l0.8-0.1l0.8-0.1l0.8-0.1l0.8-0.1l0.8-0.1l0.8-0.1l0.8-0.1l0.8-0.1l0.8-0.1l0.8-0.1l0.8-0.2l0.8-0.2
	l0.8-0.2l0.8-0.2l0.8-0.2l0.8-0.2l0.8-0.2l0.8-0.2l0.8-0.2l0.8-0.2l0.8-0.2l0.8-0.2l0.8-0.2l0.8-0.2l0.8-0.2l0.8-0.2l0.8-0.2
	l0.8-0.3l0.8-0.3l0.8-0.3l0.8-0.3l0.8-0.3l0.8-0.3l0.8-0.3l0.8-0.3l0.8-0.3l0.8-0.3l0.8-0.3l0.8-0.3l0.8-0.3l0.8-0.4l0.8-0.4
	l0.8-0.4l0.8-0.4l0.8-0.4l0.8-0.4l0.8-0.4l0.8-0.4l0.8-0.4l0.8-0.4l0.8-0.5l0.8-0.5l0.8-0.5l0.8-0.5l0.8-0.5l0.8-0.5l0.8-0.5
	l0.8-0.5l0.8-0.6l0.8-0.6l0.8-0.6l0.8-0.6l0.8-0.6l0.8-0.6l0.8-0.6l0.8-0.7l0.8-0.7l0.8-0.7l0.8-0.7l0.8-0.7l0.8-0.7l0.8-0.7
	l0.8-0.8l0.8-0.8l0.8-0.8l0.8-0.8l0.8-0.8l0.8-0.8l0.8-0.9l0.8-0.9l0.8-0.9l0.8-0.9l0.8-0.9l0.8-0.9l0.8-1l0.8-1l0.8-1l0.8-1l0.8-1
	l0.8-1l0.8-1.1l0.8-1.1l0.8-1.1l0.8-1.1l0.8-1.1l0.8-1.1l0.8-1.2l0.8-1.2l0.8-1.2l0.8-1.2l0.8-1.2l0.8-1.2l0.8-1.2l0.8-1.3l0.8-1.3
	l0.8-1.3l0.8-1.3l0.8-1.3l0.8-1.3l0.8-1.3l0.8-1.3l0.8-1.4l0.8-1.4l0.8-1.4l0.8-1.4l0.8-1.4l0.8-1.4l0.8-1.4l0.8-1.4l0.8-1.4
	l0.8-1.4l0.8-1.4l0.8-1.4l0.8-1.4l0.8-1.4l0.8-1.4l0.8-1.4l0.8-1.4l0.8-1.4l0.8-1.4l0.8-1.4l0.8-1.4l0.8-1.4l0.8-1.4l0.8-1.4
	l0.8-1.4l0.8-1.4l0.8-1.4l0.8-1.4l0.8-1.4l0.8-1.4l0.8-1.4l0.8-1.4l0.8-1.4l0.8-1.4l0.8-1.4l0.8-1.4l0.8-1.3l0.8-1.3l0.8-1.3
	l0.8-1.3l0.8-1.3l0.8-1.3l0.8-1.3l0.8-1.3l0.8-1.2l0.8-1.2l0.8-1.2l0.8-1.2l0.8-1.2l0.8-1.2l0.8-1.2l0.8-1.1l0.8-1.1l0.8-1.1
	l0.8-1.1l0.8-1.1l0.8-1.1l0.8-1l0.8-1l0.8-1l0.8-1l0.8-1l0.8-1l0.8-0.9l0.8-0.9l0.8-0.9l0.8-0.9l0.8-0.9l0.8-0.9l0.8-0.8l0.8-0.8
	l0.8-0.8l0.8-0.8l0.8-0.8l0.8-0.8l0.8-0.7l0.8-0.7l0.8-0.7l0.8-0.7l0.8-0.7l0.8-0.7l0.8-0.7l0.8-0.6l0.8-0.6l0.8-0.6l0.8-0.6
	l0.8-0.6l0.8-0.6l0.8-0.6l0.8-0.5l0.8-0.5l0.8-0.5l0.8-0.5l0.8-0.5l0.8-0.5l0.8-0.5l0.8-0.5l0.8-0.4l0.8-0.4l0.8-0.4l0.8-0.4
	l0.8-0.4l0.8-0.4l0.8-0.4l0.8-0.4l0.8-0.4l0.8-0.4l0.8-0.3l0.8-0.3l0.8-0.3l0.8-0.3l0.8-0.3l0.8-0.3l0.8-0.3l0.8-0.3l0.8-0.3
	l0.8-0.3l0.8-0.3l0.8-0.3l0.8-0.3l0.8-0.2l0.8-0.2l0.8-0.2l0.8-0.2l0.8-0.2l0.8-0.2l0.8-0.2l0.8-0.2l0.8-0.2l0.8-0.2l0.8-0.2
	l0.8-0.2l0.8-0.2l0.8-0.2l0.8-0.2l0.8-0.2l0.8-0.2l0.8-0.1l0.8-0.1l0.8-0.1l0.8-0.1l0.8-0.1l0.8-0.1l0.8-0.1l0.8-0.1l0.8-0.1
	l0.8-0.1l0.8-0.1l0.8-0.1l0.8-0.1l0.8-0.1l0.8-0.1l0.8-0.1l0.8-0.1l0.8-0.1l0.8-0.1l0.8-0.1l0.8-0.1l0.8-0.1l0.8-0.1l0.8-0.1
	l0.8-0.1l0.8-0.1l0.8-0.1l0.8-0.1l0.8-0.1l0.8-0.1l0.8-0.1l0.8-0.1l0.8-0.1l0.8-0.1l0.8-0.1l0.8-0.1l0.8-0.1l0.8-0.1l0.8-0.1
	l0.8-0.1l0.8,0l0.8,0l0.8,0l0.8,0l0.8,0l0.8,0l0.8,0l0.8,0l0.8,0l0.8,0l0.8,0l0.8,0l0.8,0l0.8,0l0.8,0l0.8,0l0.8,0l0.8,0l0.8,0
	l0.8,0l0.8,0l0.8,0l0.8,0l0.8,0l0.8,0l0.8,0l0.8,0l0.8,0l0.8,0l0.8,0l0.8,0l0.8,0l0.8,0l0.8,0l0.8,0l0.8,0l0.8,0l0.8,0l0.8,0l0.8,0
	l0.8,0"/>
<circle class="st6" cx="73.3" cy="210.7" r="4"/>
<circle class="st6" cx="92" cy="204.8" r="4"/>
<circle class="st6" cx="121.2" cy="204.8" r="4"/>
<circle class="st6" cx="124.6" cy="196" r="4"/>
<circle class="st6" cx="151.4" cy="180.6" r="4"/>
<circle class="st6" cx="169.9" cy="186.1" r="4"/>
<circle class="st6" cx="178.5" cy="203.3" r="4"/>
<circle class="st6" cx="181.9" cy="174.2" r="4"/>
<circle class="st6" cx="204.2" cy="167.8" r="4"/>
<circle class="st6" cx="204.4" cy="145.7" r="4"/>
<circle class="st6" cx="208" cy="133.3" r="4"/>
<circle class="st6" cx="217.5" cy="146.2" r="4"/>
<circle class="st6" cx="219.2" cy="125.4" r="4"/>
<circle class="st7" cx="222.3" cy="105.5" r="4"/>
<circle class="st7" cx="238.1" cy="73.1" r="4"/>
<circle class="st7" cx="238.4" cy="105.9" r="4"/>
<circle class="st7" cx="258.7" cy="50.2" r="4"/>
<circle class="st7" cx="265.9" cy="68.5" r="4"/>
<circle class="st7" cx="277.7" cy="61.2" r="4"/>
<circle class="st7" cx="294.4" cy="42.3" r="4"/>
<circle class="st7" cx="294.6" cy="52.2" r="4"/>
<circle class="st7" cx="310.6" cy="25" r="4"/>
<circle class="st7" cx="371.3" cy="35" r="4"/>
<circle class="st7" cx="383.3" cy="25" r="4"/>
<circle class="st7" cx="379.7" cy="38" r="4"/>
<circle class="st8" cx="63.2" cy="34.4" r="4"/>
<circle class="st9" cx="63.2" cy="44.7" r="4"/>
<text transform="matrix(1 0 0 1 70.0293 36.5703)" class="st2 st10">Responder (pred.)</text>
<text transform="matrix(1 0 0 1 70.0293 46.8418)" class="st2 st10">Non-responder (pred.)</text>
<rect x="15.4" y="22.4" class="st11" width="17.5" height="197"/>
<text transform="matrix(6.123234e-17 -1 1 6.123234e-17 29.8745 126.2119)" class="st12 st13">P</text>
</svg>
